<svg xmlns="http://www.w3.org/2000/svg" xmlns:xlink="http://www.w3.org/1999/xlink" viewBox="0,0,256,256" width="50px" height="50px" fill-rule="nonzero"><g fill="#030303" fill-rule="nonzero" stroke="none" stroke-width="1" stroke-linecap="butt" stroke-linejoin="miter" stroke-miterlimit="10" stroke-dasharray="" stroke-dashoffset="0" font-family="none" font-weight="none" font-size="none" text-anchor="none" style="mix-blend-mode: normal"><path d="M0,256v-256h256v256z" id="bgRectangle"></path></g><g fill="#fffbfb" fill-rule="nonzero" stroke="none" stroke-width="1" stroke-linecap="butt" stroke-linejoin="miter" stroke-miterlimit="10" stroke-dasharray="" stroke-dashoffset="0" font-family="none" font-weight="none" font-size="none" text-anchor="none" style="mix-blend-mode: normal"><g transform="scale(5.12,5.12)"><path d="M3,5c-1.64453,0 -3,1.35547 -3,3v29c0,1.64453 1.35547,3 3,3h17.40625l-0.53125,3.375c-0.14844,0.9375 -0.92578,1.625 -1.875,1.625h-1c-0.03125,0 -0.0625,0 -0.09375,0c-0.55078,0.02734 -0.98047,0.49609 -0.95312,1.04688c0.02734,0.55078 0.49609,0.98047 1.04688,0.95313h16c0.35938,0.00391 0.69531,-0.18359 0.87891,-0.49609c0.17969,-0.3125 0.17969,-0.69531 0,-1.00781c-0.18359,-0.3125 -0.51953,-0.5 -0.87891,-0.49609h-1c-0.94922,0 -1.72656,-0.6875 -1.875,-1.625l-0.53125,-3.375h17.40625c1.64453,0 3,-1.35547 3,-3v-29c0,-1.64453 -1.35547,-3 -3,-3zM3,7h44c0.56641,0 1,0.43359 1,1v24h-46v-24c0,-0.56641 0.43359,-1 1,-1zM2,34h46v3c0,0.56641 -0.43359,1 -1,1h-44c-0.56641,0 -1,-0.43359 -1,-1zM25,34.90625c-0.60156,0 -1.09375,0.49219 -1.09375,1.09375c0,0.60156 0.49219,1.09375 1.09375,1.09375c0.60156,0 1.09375,-0.49219 1.09375,-1.09375c0,-0.60156 -0.49219,-1.09375 -1.09375,-1.09375zM22.46875,40h5.0625l0.59375,3.6875c0.07422,0.47266 0.24219,0.91406 0.46875,1.3125h-7.1875c0.22656,-0.39844 0.39453,-0.83984 0.46875,-1.3125z"></path></g></g></svg>